<svg id="svg" version="1.1" width="512" height="512" xmlns="http://www.w3.org/2000/svg" xmlns:xlink="http://www.w3.org/1999/xlink" style="display: block;"><g id="svgg"><path id="path0" d="M101.478 126.367 C -9.581 237.568,-0.446 227.306,0.159 240.190 C 1.255 263.505,26.517 272.376,44.473 255.752 L 50.000 250.635 50.000 311.255 L 50.000 371.875 200.000 371.875 L 350.000 371.875 350.000 311.255 L 350.000 250.635 355.527 255.752 C 373.483 272.376,398.745 263.505,399.841 240.190 C 400.446 227.306,409.581 237.568,298.522 126.367 C 244.558 72.334,200.223 28.125,200.000 28.125 C 199.777 28.125,155.442 72.334,101.478 126.367 M262.693 163.084 L 325.000 225.387 325.000 285.740 L 325.000 346.094 287.500 346.094 L 250.000 346.094 250.000 296.094 L 250.000 246.094 200.000 246.094 L 150.000 246.094 150.000 296.094 L 150.000 346.094 112.500 346.094 L 75.000 346.094 75.000 285.744 L 75.000 225.394 137.303 163.088 C 171.569 128.819,199.781 100.781,199.996 100.781 C 200.211 100.781,228.425 128.818,262.693 163.084 " stroke="none" fill="#000000" fill-rule="evenodd"></path><path id="path1" d="M101.478 126.367 C -9.581 237.568,-0.446 227.306,0.159 240.190 C 1.255 263.505,26.517 272.376,44.473 255.752 L 50.000 250.635 50.000 311.255 L 50.000 371.875 200.000 371.875 L 350.000 371.875 350.000 311.255 L 350.000 250.635 355.527 255.752 C 373.483 272.376,398.745 263.505,399.841 240.190 C 400.446 227.306,409.581 237.568,298.522 126.367 C 244.558 72.334,200.223 28.125,200.000 28.125 C 199.777 28.125,155.442 72.334,101.478 126.367 M262.693 163.084 L 325.000 225.387 325.000 285.740 L 325.000 346.094 287.500 346.094 L 250.000 346.094 250.000 296.094 L 250.000 246.094 200.000 246.094 L 150.000 246.094 150.000 296.094 L 150.000 346.094 112.500 346.094 L 75.000 346.094 75.000 285.744 L 75.000 225.394 137.303 163.088 C 171.569 128.819,199.781 100.781,199.996 100.781 C 200.211 100.781,228.425 128.818,262.693 163.084 " stroke="none" fill="#000000" fill-rule="evenodd"></path><path id="path2" d="M101.478 126.367 C -9.581 237.568,-0.446 227.306,0.159 240.190 C 1.255 263.505,26.517 272.376,44.473 255.752 L 50.000 250.635 50.000 311.255 L 50.000 371.875 200.000 371.875 L 350.000 371.875 350.000 311.255 L 350.000 250.635 355.527 255.752 C 373.483 272.376,398.745 263.505,399.841 240.190 C 400.446 227.306,409.581 237.568,298.522 126.367 C 244.558 72.334,200.223 28.125,200.000 28.125 C 199.777 28.125,155.442 72.334,101.478 126.367 M262.693 163.084 L 325.000 225.387 325.000 285.740 L 325.000 346.094 287.500 346.094 L 250.000 346.094 250.000 296.094 L 250.000 246.094 200.000 246.094 L 150.000 246.094 150.000 296.094 L 150.000 346.094 112.500 346.094 L 75.000 346.094 75.000 285.744 L 75.000 225.394 137.303 163.088 C 171.569 128.819,199.781 100.781,199.996 100.781 C 200.211 100.781,228.425 128.818,262.693 163.084 " stroke="none" fill="#000000" fill-rule="evenodd"></path><path id="path3" d="M101.478 126.367 C -9.581 237.568,-0.446 227.306,0.159 240.190 C 1.255 263.505,26.517 272.376,44.473 255.752 L 50.000 250.635 50.000 311.255 L 50.000 371.875 200.000 371.875 L 350.000 371.875 350.000 311.255 L 350.000 250.635 355.527 255.752 C 373.483 272.376,398.745 263.505,399.841 240.190 C 400.446 227.306,409.581 237.568,298.522 126.367 C 244.558 72.334,200.223 28.125,200.000 28.125 C 199.777 28.125,155.442 72.334,101.478 126.367 M262.693 163.084 L 325.000 225.387 325.000 285.740 L 325.000 346.094 287.500 346.094 L 250.000 346.094 250.000 296.094 L 250.000 246.094 200.000 246.094 L 150.000 246.094 150.000 296.094 L 150.000 346.094 112.500 346.094 L 75.000 346.094 75.000 285.744 L 75.000 225.394 137.303 163.088 C 171.569 128.819,199.781 100.781,199.996 100.781 C 200.211 100.781,228.425 128.818,262.693 163.084 " stroke="none" fill="#000000" fill-rule="evenodd"></path><path id="path4" d="M101.478 126.367 C -9.581 237.568,-0.446 227.306,0.159 240.190 C 1.255 263.505,26.517 272.376,44.473 255.752 L 50.000 250.635 50.000 311.255 L 50.000 371.875 200.000 371.875 L 350.000 371.875 350.000 311.255 L 350.000 250.635 355.527 255.752 C 373.483 272.376,398.745 263.505,399.841 240.190 C 400.446 227.306,409.581 237.568,298.522 126.367 C 244.558 72.334,200.223 28.125,200.000 28.125 C 199.777 28.125,155.442 72.334,101.478 126.367 M262.693 163.084 L 325.000 225.387 325.000 285.740 L 325.000 346.094 287.500 346.094 L 250.000 346.094 250.000 296.094 L 250.000 246.094 200.000 246.094 L 150.000 246.094 150.000 296.094 L 150.000 346.094 112.500 346.094 L 75.000 346.094 75.000 285.744 L 75.000 225.394 137.303 163.088 C 171.569 128.819,199.781 100.781,199.996 100.781 C 200.211 100.781,228.425 128.818,262.693 163.084 " stroke="none" fill="#000000" fill-rule="evenodd"></path></g></svg>