<?xml version="1.0" standalone="no"?>
<!DOCTYPE svg PUBLIC "-//W3C//DTD SVG 20010904//EN"
 "http://www.w3.org/TR/2001/REC-SVG-20010904/DTD/svg10.dtd">
<svg version="1.0" xmlns="http://www.w3.org/2000/svg"
 width="427.000000pt" height="640.000000pt" viewBox="0 0 427.000000 640.000000"
 preserveAspectRatio="xMidYMid meet">

<g transform="translate(0.000000,640.000000) scale(0.100000,-0.100000)"
fill="#000000" stroke="none">
<path d="M1921 5065 c-507 -114 -861 -548 -861 -1055 0 -475 304 -879 777
-1032 97 -31 101 -32 298 -32 196 0 202 1 296 31 89 29 227 90 255 114 14 12
102 -24 219 -88 325 -179 591 -486 721 -830 35 -95 80 -276 88 -355 l7 -68
-1586 0 -1586 0 7 68 c8 79 53 260 88 355 77 202 194 384 363 558 136 141 147
163 118 237 -31 76 -117 112 -186 77 -79 -41 -259 -239 -377 -415 -179 -269
-302 -663 -302 -974 0 -80 3 -92 26 -123 52 -68 -100 -63 1851 -63 1747 0
1768 0 1801 20 18 11 41 34 53 52 19 30 20 44 16 153 -28 664 -425 1285 -1009
1577 l-57 28 55 73 c316 416 275 1014 -95 1388 -136 136 -290 228 -476 285
-80 24 -109 27 -265 30 -127 3 -193 0 -239 -11z m419 -291 c108 -30 170 -58
255 -119 175 -124 290 -316 322 -536 14 -99 14 -119 0 -216 -45 -312 -244
-548 -547 -649 -78 -26 -97 -28 -235 -28 -138 0 -157 2 -235 28 -301 99 -502
337 -547 647 -14 99 -14 119 0 218 33 225 155 424 337 548 186 126 432 167
650 107z"/>
</g>
</svg>
